# MagicaVoxel @ ephtracy

# material
mtllib bed.mtl
usemtl palette

# normals
vn -1 0 0
vn 1 0 0
vn 0 0 1
vn 0 0 -1
vn 0 -1 0
vn 0 1 0

# texcoords
vt 0.306641 0.5
vt 0.970703 0.5
vt 0.974609 0.5
vt 0.978516 0.5
vt 0.982422 0.5

# verts
v -8 3 8
v -8 3 -16
v -8 8 8
v -8 8 -16
v -7 0 16
v -7 0 14
v -7 0 -13
v -7 0 -15
v -7 3 16
v -7 3 14
v -7 3 8
v -7 3 -13
v -7 3 -15
v -7 7 16
v -7 7 8
v -5 7 14
v -5 7 9
v -5 8 14
v -5 8 9
v 5 0 16
v 5 0 14
v 5 0 -13
v 5 0 -15
v 5 3 16
v 5 3 15
v 5 3 14
v 5 3 -13
v 5 3 -15
v -5 0 16
v -5 0 14
v -5 0 -13
v -5 0 -15
v -5 3 16
v -5 3 15
v -5 3 14
v -5 3 -13
v -5 3 -15
v 5 7 14
v 5 7 9
v 5 8 14
v 5 8 9
v 7 0 16
v 7 0 14
v 7 0 -13
v 7 0 -15
v 7 3 16
v 7 3 14
v 7 3 8
v 7 3 -13
v 7 3 -15
v 7 7 16
v 7 7 8
v 8 3 8
v 8 3 -16
v 8 8 8
v 8 8 -16
v -7 0 16
v -7 3 16
v -7 7 16
v -5 0 16
v -5 3 16
v 5 0 16
v 5 3 16
v 7 0 16
v 7 3 16
v 7 7 16
v -5 7 14
v -5 8 14
v 5 7 14
v 5 8 14
v -8 3 8
v -8 8 8
v -7 3 8
v -7 7 8
v 7 3 8
v 7 7 8
v 8 3 8
v 8 8 8
v -7 0 -13
v -7 3 -13
v -5 0 -13
v -5 3 -13
v 5 0 -13
v 5 3 -13
v 7 0 -13
v 7 3 -13
v -7 0 14
v -7 3 14
v -6 3 14
v -5 0 14
v -5 3 14
v 5 0 14
v 5 3 14
v 6 3 14
v 7 0 14
v 7 3 14
v -5 7 9
v -5 8 9
v 5 7 9
v 5 8 9
v -7 0 -15
v -7 3 -15
v -5 0 -15
v -5 3 -15
v 5 0 -15
v 5 3 -15
v 7 0 -15
v 7 3 -15
v -8 3 -16
v -8 8 -16
v -7 3 -16
v -7 7 -16
v 7 3 -16
v 7 7 -16
v 8 3 -16
v 8 8 -16
v -7 0 16
v -5 0 16
v 5 0 16
v 7 0 16
v -7 0 14
v -5 0 14
v 5 0 14
v 7 0 14
v -7 0 -13
v -5 0 -13
v 5 0 -13
v 7 0 -13
v -7 0 -15
v -5 0 -15
v 5 0 -15
v 7 0 -15
v -5 3 16
v 5 3 16
v -5 3 15
v 5 3 15
v -7 3 14
v -6 3 14
v -5 3 14
v 5 3 14
v 6 3 14
v 7 3 14
v -8 3 8
v -7 3 8
v -6 3 8
v 6 3 8
v 7 3 8
v 8 3 8
v -7 3 -13
v -5 3 -13
v 5 3 -13
v 7 3 -13
v -7 3 -15
v -5 3 -15
v 5 3 -15
v 7 3 -15
v -8 3 -16
v -7 3 -16
v 7 3 -16
v 8 3 -16
v -7 7 16
v 7 7 16
v -5 7 14
v 5 7 14
v -5 7 9
v 5 7 9
v -7 7 8
v 7 7 8
v -5 8 14
v 5 8 14
v -5 8 9
v 5 8 9
v -8 8 8
v 8 8 8
v -8 8 -16
v 8 8 -16

# faces
f 3/3/1 2/3/1 1/3/1
f 4/3/1 2/3/1 3/3/1
f 9/5/1 6/5/1 5/5/1
f 10/5/1 6/5/1 9/5/1
f 12/5/1 8/5/1 7/5/1
f 13/5/1 8/5/1 12/5/1
f 14/2/1 11/2/1 10/2/1
f 14/2/1 10/2/1 9/2/1
f 15/2/1 11/2/1 14/2/1
f 18/4/1 17/4/1 16/4/1
f 19/4/1 17/4/1 18/4/1
f 24/5/1 21/5/1 20/5/1
f 25/5/1 21/5/1 24/5/1
f 26/5/1 21/5/1 25/5/1
f 27/5/1 23/5/1 22/5/1
f 28/5/1 23/5/1 27/5/1
f 29/5/2 30/5/2 33/5/2
f 33/5/2 30/5/2 34/5/2
f 34/5/2 30/5/2 35/5/2
f 31/5/2 32/5/2 36/5/2
f 36/5/2 32/5/2 37/5/2
f 38/4/2 39/4/2 40/4/2
f 40/4/2 39/4/2 41/4/2
f 42/5/2 43/5/2 46/5/2
f 46/5/2 43/5/2 47/5/2
f 44/5/2 45/5/2 49/5/2
f 49/5/2 45/5/2 50/5/2
f 47/2/2 48/2/2 51/2/2
f 46/2/2 47/2/2 51/2/2
f 51/2/2 48/2/2 52/2/2
f 53/3/2 54/3/2 55/3/2
f 55/3/2 54/3/2 56/3/2
f 60/5/3 58/5/3 57/5/3
f 61/2/3 59/2/3 58/2/3
f 61/5/3 58/5/3 60/5/3
f 63/2/3 59/2/3 61/2/3
f 64/5/3 63/5/3 62/5/3
f 65/2/3 59/2/3 63/2/3
f 65/5/3 63/5/3 64/5/3
f 66/2/3 59/2/3 65/2/3
f 69/4/3 68/4/3 67/4/3
f 70/4/3 68/4/3 69/4/3
f 73/3/3 72/3/3 71/3/3
f 74/3/3 72/3/3 73/3/3
f 76/3/3 72/3/3 74/3/3
f 77/3/3 76/3/3 75/3/3
f 78/3/3 72/3/3 76/3/3
f 78/3/3 76/3/3 77/3/3
f 81/5/3 80/5/3 79/5/3
f 82/5/3 80/5/3 81/5/3
f 85/5/3 84/5/3 83/5/3
f 86/5/3 84/5/3 85/5/3
f 87/5/4 88/5/4 89/5/4
f 87/5/4 89/5/4 90/5/4
f 90/5/4 89/5/4 91/5/4
f 92/5/4 93/5/4 94/5/4
f 92/5/4 94/5/4 95/5/4
f 95/5/4 94/5/4 96/5/4
f 97/4/4 98/4/4 99/4/4
f 99/4/4 98/4/4 100/4/4
f 101/5/4 102/5/4 103/5/4
f 103/5/4 102/5/4 104/5/4
f 105/5/4 106/5/4 107/5/4
f 107/5/4 106/5/4 108/5/4
f 109/3/4 110/3/4 111/3/4
f 111/3/4 110/3/4 112/3/4
f 111/2/4 112/2/4 113/2/4
f 112/3/4 110/3/4 114/3/4
f 113/2/4 112/2/4 114/2/4
f 113/3/4 114/3/4 115/3/4
f 114/3/4 110/3/4 116/3/4
f 115/3/4 114/3/4 116/3/4
f 121/5/5 118/5/5 117/5/5
f 122/5/5 118/5/5 121/5/5
f 123/5/5 120/5/5 119/5/5
f 124/5/5 120/5/5 123/5/5
f 129/5/5 126/5/5 125/5/5
f 130/5/5 126/5/5 129/5/5
f 131/5/5 128/5/5 127/5/5
f 132/5/5 128/5/5 131/5/5
f 135/2/5 134/2/5 133/2/5
f 136/2/5 134/2/5 135/2/5
f 139/1/5 136/1/5 135/1/5
f 140/1/5 136/1/5 139/1/5
f 144/2/5 138/2/5 137/2/5
f 145/1/5 140/1/5 139/1/5
f 145/1/5 139/1/5 138/1/5
f 145/2/5 138/2/5 144/2/5
f 145/1/5 141/1/5 140/1/5
f 146/2/5 142/2/5 141/2/5
f 146/1/5 141/1/5 145/1/5
f 147/2/5 142/2/5 146/2/5
f 149/1/5 145/1/5 144/1/5
f 149/3/5 144/3/5 143/3/5
f 149/1/5 147/1/5 146/1/5
f 149/1/5 146/1/5 145/1/5
f 150/1/5 147/1/5 149/1/5
f 151/1/5 147/1/5 150/1/5
f 152/3/5 148/3/5 147/3/5
f 152/1/5 147/1/5 151/1/5
f 153/3/5 149/3/5 143/3/5
f 154/1/5 151/1/5 150/1/5
f 155/1/5 151/1/5 154/1/5
f 156/3/5 148/3/5 152/3/5
f 157/3/5 153/3/5 143/3/5
f 158/2/5 156/2/5 155/2/5
f 158/3/5 153/3/5 157/3/5
f 158/2/5 155/2/5 154/2/5
f 158/2/5 154/2/5 153/2/5
f 159/3/5 148/3/5 156/3/5
f 159/2/5 156/2/5 158/2/5
f 160/3/5 148/3/5 159/3/5
f 161/2/6 162/2/6 163/2/6
f 163/2/6 162/2/6 164/2/6
f 161/2/6 163/2/6 165/2/6
f 164/2/6 162/2/6 166/2/6
f 161/2/6 165/2/6 167/2/6
f 165/2/6 166/2/6 167/2/6
f 166/2/6 162/2/6 168/2/6
f 167/2/6 166/2/6 168/2/6
f 169/4/6 170/4/6 171/4/6
f 171/4/6 170/4/6 172/4/6
f 173/3/6 174/3/6 175/3/6
f 175/3/6 174/3/6 176/3/6
